# Blender 4.0.2
# www.blender.org
mtllib LEG.mtl
o LEG.001
v -0.517903 -1.172549 0.056263
v -0.469376 -2.200204 0.067200
v -0.508867 -1.193181 -0.041534
v -0.466671 -2.250958 -0.018789
v -0.298135 -1.209272 0.123896
v -0.357476 -2.255658 0.080760
v -0.275427 -1.177620 -0.046327
v -0.359962 -2.264672 0.035122
v -0.432460 -2.192145 0.108940
v -0.471566 -1.218396 0.147389
v -0.369575 -1.228161 0.174537
v -0.389392 -2.211053 0.113528
v -0.386570 -2.280378 -0.013028
v -0.317679 -1.163657 -0.108927
v -0.436453 -2.270477 -0.022400
v -0.444275 -1.151368 -0.134712
v -0.348640 -1.370193 -0.156904
v -0.425095 -1.359650 -0.169895
v -0.289774 -1.420709 -0.055997
v -0.485076 -1.390037 -0.066088
v -0.087118 -0.210930 -0.130294
v -0.275898 -1.182385 -0.045468
v -0.104358 -0.242203 0.128665
v -0.317339 -1.222958 0.122346
v -0.433852 -0.150417 -0.120330
v -0.509472 -1.191955 -0.048014
v -0.447462 -0.160206 0.047669
v -0.520517 -1.199892 0.059718
v -0.318775 -1.164919 -0.104861
v -0.168282 -0.192598 -0.222664
v -0.336726 -0.173780 -0.221377
v -0.443986 -1.159701 -0.134551
v -0.472451 -1.226791 0.148714
v -0.383989 -0.187462 0.151427
v -0.368508 -1.237016 0.170110
v -0.209443 -0.228638 0.206444
v 0.226988 1.912065 -0.196556
v 0.282964 1.198090 -0.325203
v 0.219053 2.046481 0.218207
v 0.226735 1.457372 0.135963
v -0.089529 1.932320 -0.195189
v -0.141501 1.194846 -0.317102
v -0.123201 2.022983 0.165041
v -0.111274 1.430047 0.223531
v 0.259872 1.731579 0.229926
v -0.170342 1.748554 0.206278
v 0.005080 1.328796 0.291361
v -0.114464 1.739164 0.371900
v 0.104116 1.324655 0.313094
v 0.210472 1.738488 0.345698
v -0.043028 2.010262 0.314481
v 0.148738 2.016397 0.337255
v 0.294784 1.485470 -0.012311
v -0.143115 1.466622 0.024760
v -0.113071 1.108292 -0.148944
v 0.297630 1.127340 -0.083092
v -0.446098 -0.207374 0.166189
v -0.643616 1.297284 0.063980
v -0.451015 -0.200763 -0.230482
v -0.667522 1.301009 -0.138344
v 0.407165 -0.241536 0.173886
v 0.646603 1.297424 0.129599
v 0.338772 -0.159249 -0.152825
v 0.622218 1.249922 -0.146917
v -0.218217 -0.370417 0.310509
v -0.365669 1.264771 0.243349
v 0.125973 -0.403496 0.299618
v 0.359366 1.236163 0.248501
v -0.367227 1.180851 -0.376472
v -0.161710 -0.375762 -0.348568
v 0.203109 -0.402472 -0.358518
v 0.427376 1.180851 -0.376472
v -0.327831 0.719402 0.400428
v 0.339140 0.762237 0.451769
v -0.297937 0.216044 -0.282811
v 0.273360 0.235064 -0.331653
v -0.526485 0.889254 0.111061
v 0.536523 0.845594 0.120126
v 0.386046 0.356054 -0.144141
v -0.462091 0.360663 -0.203157
v -1.041670 -0.153424 -0.011937
v -0.860297 0.559087 -0.074222
v -1.037322 -0.265309 -0.198514
v -0.847350 0.501200 -0.281015
v -0.819663 -0.195373 -0.055279
v -0.636892 0.528283 -0.116843
v -0.829792 -0.313330 -0.227665
v -0.638289 0.459267 -0.314077
v -0.861794 0.555344 -0.074272
v -0.630061 1.291697 0.026526
v -0.848417 0.498189 -0.282387
v -0.663308 1.300605 -0.138205
v -0.637809 0.525385 -0.117398
v -0.468796 1.222381 0.020331
v -0.639497 0.458592 -0.313990
v -0.453895 1.208814 -0.105745
v 1.076389 -0.153424 -0.011937
v 0.895016 0.559087 -0.074222
v 1.072041 -0.265309 -0.198514
v 0.882069 0.501200 -0.281015
v 0.854382 -0.195373 -0.055279
v 0.671612 0.528283 -0.116843
v 0.864511 -0.313330 -0.227665
v 0.673009 0.459267 -0.314077
v 0.896513 0.555344 -0.074272
v 0.639698 1.277217 0.011211
v 0.883136 0.498189 -0.282387
v 0.621182 1.249387 -0.145893
v 0.672528 0.525385 -0.117397
v 0.503516 1.222381 0.020331
v 0.674216 0.458592 -0.313990
v 0.488615 1.208814 -0.105745
v 0.439250 -1.172549 0.056263
v 0.390723 -2.200204 0.067200
v 0.430214 -1.193181 -0.041534
v 0.388018 -2.250958 -0.018789
v 0.219482 -1.209272 0.123896
v 0.278823 -2.255658 0.080760
v 0.196774 -1.177620 -0.046327
v 0.281309 -2.264672 0.035122
v 0.353807 -2.192145 0.108940
v 0.392913 -1.218396 0.147389
v 0.290922 -1.228161 0.174537
v 0.310739 -2.211053 0.113528
v 0.307917 -2.280379 -0.013028
v 0.239026 -1.163657 -0.108927
v 0.357800 -2.270477 -0.022400
v 0.365622 -1.151368 -0.134712
v 0.269987 -1.370193 -0.156904
v 0.346442 -1.359650 -0.169895
v 0.211121 -1.420709 -0.055997
v 0.406423 -1.390037 -0.066088
v 0.008465 -0.210930 -0.130294
v 0.197245 -1.182385 -0.045468
v 0.025705 -0.242202 0.128665
v 0.238686 -1.222958 0.122346
v 0.355199 -0.150417 -0.120330
v 0.430819 -1.191955 -0.048014
v 0.368809 -0.160206 0.047669
v 0.441864 -1.199892 0.059718
v 0.240122 -1.164919 -0.104861
v 0.089628 -0.192598 -0.222664
v 0.258073 -0.173780 -0.221377
v 0.365333 -1.159701 -0.134551
v 0.393798 -1.226791 0.148714
v 0.305336 -0.187462 0.151426
v 0.289855 -1.237016 0.170110
v 0.130790 -0.228638 0.206444
vn -0.9924 -0.0449 -0.1149
vn -0.8434 -0.0103 -0.5371
vn 0.9933 -0.0654 0.0951
vn 0.6170 -0.0643 0.7843
vn 0.0161 0.9787 0.2046
vn -0.3835 -0.8071 0.4488
vn -0.8522 -0.0445 0.5213
vn -0.2232 -0.0517 0.9734
vn 0.8473 -0.0173 -0.5308
vn 0.2045 0.1868 -0.9609
vn 0.8486 -0.1213 -0.5149
vn 0.1469 -0.1602 -0.9761
vn -0.7600 -0.0740 -0.6457
vn 0.9753 -0.1966 0.1010
vn 0.6210 -0.1327 0.7725
vn -0.9941 0.0676 -0.0845
vn -0.7559 0.0168 -0.6545
vn 0.1850 0.9790 0.0861
vn 0.0025 -0.9727 -0.2322
vn 0.7361 -0.1960 -0.6479
vn 0.0863 -0.1148 -0.9896
vn -0.8550 0.0687 0.5141
vn -0.2623 0.0133 0.9649
vn 0.0031 -0.9822 0.1877
vn -0.8778 0.2528 -0.4069
vn 0.9974 -0.0265 0.0675
vn -0.0499 0.9308 0.3621
vn -0.9963 -0.0816 0.0275
vn 0.0087 -0.1701 0.9854
vn 0.8789 -0.2630 -0.3980
vn 0.8320 0.2470 -0.4967
vn -0.0089 0.1359 -0.9907
vn -0.0053 -0.1190 -0.9929
vn -0.8717 -0.1665 -0.4609
vn 0.0044 0.9267 0.3758
vn 0.0176 0.3236 -0.9460
vn 0.9919 0.1227 -0.0337
vn 0.3845 -0.0254 0.9228
vn -0.9670 0.1719 0.1878
vn -0.7206 0.1392 -0.6793
vn 0.0158 0.9995 0.0287
vn -0.0181 -0.9936 0.1115
vn 0.7391 0.0749 -0.6694
vn 0.0387 0.1049 -0.9937
vn 0.0619 -0.0717 0.9955
vn -0.8727 0.0741 0.4826
vn 0.0416 -0.3324 -0.9422
vn 0.0347 0.0707 0.9969
vn 0.6914 -0.0420 -0.7212
vn -0.6699 -0.0606 -0.7400
vn -0.8295 0.1895 0.5253
vn 0.5996 0.0985 0.7942
vn 0.9634 -0.2281 0.1408
vn 0.1617 0.0680 0.9845
vn -0.9684 0.2335 -0.0879
vn -0.1949 -0.0351 -0.9802
vn 0.0848 0.8385 -0.5383
vn -0.1080 -0.9493 0.2951
vn 0.9658 -0.2588 -0.0180
vn -0.0666 -0.2057 0.9763
vn -0.9600 0.2601 -0.1041
vn -0.0778 0.1848 -0.9797
vn 0.1031 0.9519 -0.2886
vn -0.4007 -0.9154 0.0399
vn 0.9634 0.2281 -0.1408
vn 0.1617 -0.0680 -0.9845
vn -0.9684 -0.2335 0.0879
vn -0.1949 0.0351 0.9802
vn 0.0848 -0.8385 0.5383
vn -0.1080 0.9493 -0.2951
vn 0.9229 0.3494 -0.1619
vn -0.0720 0.2028 -0.9766
vn -0.9600 -0.2601 0.1041
vn -0.0527 -0.1706 0.9839
vn 0.1031 -0.9519 0.2886
vn -0.3485 0.9325 -0.0952
vn -0.9924 0.0449 0.1149
vn -0.8434 0.0103 0.5371
vn 0.9933 0.0654 -0.0951
vn 0.6170 0.0643 -0.7843
vn 0.0161 -0.9787 -0.2046
vn -0.3835 0.8071 -0.4488
vn -0.8522 0.0445 -0.5213
vn -0.2232 0.0517 -0.9734
vn 0.8473 0.0173 0.5308
vn 0.2045 -0.1868 0.9609
vn 0.8486 0.1213 0.5149
vn 0.1469 0.1602 0.9761
vn -0.7600 0.0740 0.6457
vn 0.9753 0.1966 -0.1010
vn 0.6210 0.1327 -0.7725
vn -0.9941 -0.0676 0.0845
vn -0.7559 -0.0168 0.6545
vn 0.1850 -0.9790 -0.0861
vn 0.0025 0.9727 0.2322
vn 0.7361 0.1960 0.6479
vn 0.0863 0.1148 0.9896
vn -0.8550 -0.0687 -0.5141
vn -0.2623 -0.0133 -0.9649
vt 0.521417 0.047985
vt 0.771417 0.047985
vt 0.771417 0.297985
vt 0.572322 0.297985
vt 0.521417 0.297985
vt 0.577773 0.370597
vt 0.521417 0.364362
vt 0.521417 0.043525
vt 0.576287 0.043525
vt 0.771417 0.043525
vt 0.771417 0.248000
vt 0.521417 0.248000
vt 0.613696 0.143417
vt 0.863696 0.143417
vt 0.863696 0.210422
vt 0.613696 0.219934
vt 0.125000 0.500000
vt 0.191377 0.500000
vt 0.296171 0.500000
vt 0.375000 0.500000
vt 0.375000 0.750000
vt 0.298483 0.750000
vt 0.186065 0.750000
vt 0.125000 0.750000
vt 0.794913 0.043525
vt 0.886779 0.043525
vt 0.980814 0.043525
vt 0.980814 0.248000
vt 0.931787 0.248000
vt 0.797819 0.248000
vt 0.521417 0.436935
vt 0.771417 0.448974
vt 0.771417 0.498000
vt 0.521417 0.498000
vt 0.863696 0.344390
vt 0.613696 0.332352
vt 0.521417 0.469156
vt 0.577200 0.472443
vt 0.771417 0.483886
vt 0.771417 0.392020
vt 0.771417 0.315006
vt 0.521417 0.324517
vt 0.625000 0.500000
vt 0.689099 0.500000
vt 0.780965 0.500000
vt 0.875000 0.500000
vt 0.875000 0.750000
vt 0.825973 0.750000
vt 0.692005 0.750000
vt 0.625000 0.750000
vt 0.221432 0.530760
vt 0.471432 0.541833
vt 0.471432 0.791833
vt 0.384563 0.791833
vt 0.318954 0.791833
vt 0.221432 0.791833
vt 0.267702 0.791833
vt 0.190864 0.809368
vt 0.375000 0.787691
vt 0.233505 0.517995
vt 0.368407 0.517995
vt 0.483505 0.517995
vt 0.483505 0.767995
vt 0.233505 0.767995
vt 0.233505 0.707066
vt 0.233505 0.639385
vt 0.375000 0.570749
vt 0.125000 0.560929
vt 0.375000 0.599662
vt 0.375000 0.637326
vt 0.186309 1.000000
vt 0.183829 0.935781
vt 0.301407 0.913132
vt 0.301407 1.000000
vt 0.051407 0.905707
vt 0.051407 1.000000
vt 0.249023 0.695774
vt 0.216743 0.816363
vt 0.000586 0.812734
vt -0.000977 0.670355
vt 0.045898 0.911179
vt 0.038672 0.803945
vt 0.347602 0.790973
vt 0.314453 0.898303
vt 0.221432 0.889355
vt 0.097354 0.809368
vt 0.096677 0.791833
vt 0.125000 0.617536
vt 0.290554 0.750000
vt 0.219293 0.738926
vt 0.125000 0.738926
vt 0.125000 0.549855
vt 0.004652 0.000000
vt 0.177472 0.000000
vt 0.254652 0.000000
vt 0.254652 0.250000
vt 0.093755 0.250000
vt 0.004652 0.250000
vt 0.129214 0.324245
vt 0.004652 0.347264
vt 0.004652 0.006613
vt 0.090704 0.006613
vt 0.254652 0.006613
vt 0.254652 0.256613
vt 0.171751 0.256613
vt 0.004652 0.256613
vt 0.140630 0.317369
vt 0.004652 0.338748
vt 0.624539 0.043525
vt 0.721803 0.043525
vt 0.805485 0.043525
vt 0.792404 0.248000
vt 0.694473 0.248000
vt 0.624539 0.248000
vt 0.293606 0.006613
vt 0.401912 0.006613
vt 0.452976 0.006613
vt 0.452976 0.256613
vt 0.430213 0.256613
vt 0.297482 0.256613
vt 0.004652 0.436679
vt 0.140954 0.462397
vt 0.177472 0.506613
vt 0.004652 0.506613
vt 0.127090 0.445688
vt 0.004652 0.430946
vt 0.254652 0.299442
vt 0.254652 0.483850
vt 0.254652 0.301064
vt 0.254652 0.461046
vt 0.254652 0.506613
vt 0.744117 0.521686
vt 0.994117 0.521686
vt 0.994117 0.733544
vt 0.744117 0.733544
vt 0.994117 0.994617
vt 0.744117 0.994617
vt 0.744117 0.511074
vt 0.994117 0.511074
vt 0.994117 0.750000
vt 0.744117 0.750000
vt 0.994117 1.000000
vt 0.744117 1.000000
vt 0.494117 0.511074
vt 0.494117 0.750000
vt 0.613696 0.000000
vt 0.863696 0.000000
vt 0.863696 0.250000
vt 0.664601 0.250000
vt 0.613696 0.250000
vt 0.670052 0.322612
vt 0.613696 0.316377
vt 0.613696 0.500000
vt 0.668566 0.500000
vt 0.863696 0.500000
vt 0.625000 0.100123
vt 0.689099 0.100123
vt 0.780965 0.100123
vt 0.875000 0.100123
vt 0.875000 0.350123
vt 0.825973 0.350123
vt 0.692005 0.350123
vt 0.625000 0.350123
vt 0.863696 0.393417
vt 0.613696 0.393417
vt 0.613696 0.421171
vt 0.669479 0.424457
vt 0.863696 0.435901
vt 0.863696 0.344034
s 0
usemtl Material
f 1/1/1 3/5/1 20/4/1 4/3/1 2/2/1
f 3/5/2 16/7/2 18/6/2 20/4/2
f 7/8/3 5/12/3 6/11/3 8/10/3 19/9/3
f 5/13/4 11/16/4 12/15/4 6/14/4
f 3/17/5 1/24/5 10/23/5 11/22/5 5/21/5 7/20/5 14/19/5 16/18/5
f 8/10/6 6/11/6 12/30/6 9/29/6 2/28/6 4/27/6 15/26/6 13/25/6
f 10/31/7 1/34/7 2/33/7 9/32/7
f 11/16/8 10/36/8 9/35/8 12/15/8
f 14/37/9 7/8/9 19/9/9 17/38/9
f 16/7/10 14/37/10 17/38/10 18/6/10
f 19/9/11 8/10/11 13/39/11 17/38/11
f 17/38/12 13/39/12 15/40/12 18/6/12
f 18/6/13 15/40/13 4/3/13 20/4/13
f 21/1/14 23/5/14 24/3/14 22/2/14
f 23/5/15 36/7/15 35/40/15 24/3/15
f 27/8/16 25/12/16 26/11/16 28/10/16
f 25/12/17 31/42/17 32/41/17 26/11/17
f 23/17/18 21/24/18 30/23/18 31/22/18 25/21/18 27/20/18 34/19/18 36/18/18
f 28/43/19 26/50/19 32/49/19 29/48/19 22/47/19 24/46/19 35/45/19 33/44/19
f 30/31/20 21/34/20 22/33/20 29/32/20
f 31/42/21 30/31/21 29/32/21 32/41/21
f 34/37/22 27/8/22 28/10/22 33/39/22
f 36/7/23 34/37/23 33/39/23 35/40/23
f 37/51/24 39/56/24 52/55/24 51/54/24 43/53/24 41/52/24
f 40/21/25 49/59/25 50/58/25 45/57/25
f 44/60/26 54/66/26 55/65/26 42/64/26 41/63/26 43/62/26 46/61/26
f 42/17/27 55/68/27 56/67/27 38/20/27
f 38/69/28 56/67/28 53/70/28 40/21/28 45/57/28 39/56/28 37/51/28
f 42/64/29 38/69/29 37/51/29 41/63/29
f 46/71/30 43/74/30 51/73/30 48/72/30
f 47/75/31 44/76/31 46/71/31 48/72/31
f 49/77/32 47/80/32 48/79/32 50/78/32
f 51/81/33 52/84/33 50/83/33 48/82/33
f 52/85/34 39/56/34 45/87/34 50/86/34
f 54/88/35 44/91/35 47/90/35 49/89/35 40/21/35 53/70/35
f 55/92/36 54/88/36 53/70/36 56/67/36
f 57/93/37 59/98/37 80/97/37 60/96/37 58/95/37 77/94/37
f 59/98/38 70/100/38 75/99/38 80/97/38
f 63/101/39 61/106/39 78/105/39 62/104/39 64/103/39 79/102/39
f 61/106/40 67/108/40 74/107/40 78/105/40
f 59/109/41 57/114/41 65/113/41 67/112/41 61/12/41 63/8/41 71/111/41 70/110/41
f 64/103/42 62/104/42 68/120/42 66/119/42 58/118/42 60/117/42 69/116/42 72/115/42
f 65/121/43 57/124/43 77/123/43 73/122/43
f 67/108/44 65/121/44 73/122/44 74/107/44
f 70/100/45 71/126/45 76/125/45 75/99/45
f 71/126/46 63/101/46 79/102/46 76/125/46
f 73/122/47 66/128/47 68/127/47 74/107/47
f 76/125/48 72/130/48 69/129/48 75/99/48
f 77/123/49 58/131/49 66/128/49 73/122/49
f 74/107/50 68/127/50 62/104/50 78/105/50
f 79/102/51 64/103/51 72/130/51 76/125/51
f 75/99/52 69/129/52 60/96/52 80/97/52
f 81/132/53 83/135/53 84/134/53 82/133/53
f 83/135/54 87/137/54 88/136/54 84/134/54
f 87/138/55 85/141/55 86/140/55 88/139/55
f 85/141/56 81/143/56 82/142/56 86/140/56
f 83/144/57 81/145/57 85/141/57 87/138/57
f 88/43/58 86/50/58 82/47/58 84/46/58
f 89/132/59 91/135/59 92/134/59 90/133/59
f 91/135/60 95/137/60 96/136/60 92/134/60
f 95/138/61 93/141/61 94/140/61 96/139/61
f 93/141/62 89/143/62 90/142/62 94/140/62
f 91/17/63 89/24/63 93/21/63 95/20/63
f 96/43/64 94/50/64 90/47/64 92/46/64
f 97/132/65 99/135/65 100/134/65 98/133/65
f 99/135/66 103/137/66 104/136/66 100/134/66
f 103/138/67 101/141/67 102/140/67 104/139/67
f 101/141/68 97/143/68 98/142/68 102/140/68
f 99/144/69 97/145/69 101/141/69 103/138/69
f 104/43/70 102/50/70 98/47/70 100/46/70
f 105/132/71 107/135/71 108/134/71 106/133/71
f 107/135/72 111/137/72 112/136/72 108/134/72
f 111/138/73 109/141/73 110/140/73 112/139/73
f 109/141/74 105/143/74 106/142/74 110/140/74
f 107/17/75 105/24/75 109/21/75 111/20/75
f 112/43/76 110/50/76 106/47/76 108/46/76
f 113/146/77 115/150/77 132/149/77 116/148/77 114/147/77
f 115/150/78 128/152/78 130/151/78 132/149/78
f 119/153/79 117/13/79 118/14/79 120/155/79 131/154/79
f 117/13/80 123/16/80 124/15/80 118/14/80
f 115/17/81 113/24/81 122/23/81 123/22/81 117/21/81 119/20/81 126/19/81 128/18/81
f 120/156/82 118/163/82 124/162/82 121/161/82 114/160/82 116/159/82 127/158/82 125/157/82
f 122/36/83 113/165/83 114/164/83 121/35/83
f 123/16/84 122/36/84 121/35/84 124/15/84
f 126/166/85 119/153/85 131/154/85 129/167/85
f 128/152/86 126/166/86 129/167/86 130/151/86
f 131/154/87 120/155/87 125/168/87 129/167/87
f 129/167/88 125/168/88 127/169/88 130/151/88
f 130/151/89 127/169/89 116/148/89 132/149/89
f 133/146/90 135/150/90 136/148/90 134/147/90
f 135/150/91 148/152/91 147/169/91 136/148/91
f 139/153/92 137/13/92 138/14/92 140/155/92
f 137/13/93 143/16/93 144/15/93 138/14/93
f 135/17/94 133/24/94 142/23/94 143/22/94 137/21/94 139/20/94 146/19/94 148/18/94
f 140/43/95 138/50/95 144/49/95 141/48/95 134/47/95 136/46/95 147/45/95 145/44/95
f 142/36/96 133/165/96 134/164/96 141/35/96
f 143/16/97 142/36/97 141/35/97 144/15/97
f 146/166/98 139/153/98 140/155/98 145/168/98
f 148/152/99 146/166/99 145/168/99 147/169/99
